<?xml version="1.0" encoding="UTF-8"?><svg id="a" xmlns="http://www.w3.org/2000/svg" viewBox="0 0 48.35 63.85"><path d="M42.69,11.31l-3.28-4.01C33.93.91,25.91,0,18.06,0H0v55.46l4.01,4.93c2.01,2.37,4.38,3.47,7.3,3.47h12.95c2.74,0,9.67-.36,15.51-4.2,5.66-3.83,8.57-9.49,8.57-16.97v-17.51c0-6.57-2.74-10.22-5.66-13.87ZM37.76,35.03c0,10.95-6.2,16.42-18.24,16.42H5.29V5.47h14.23c5.84,0,10.4,1.09,13.5,3.47s4.74,6.02,4.74,10.76v15.32ZM17.51,33.18h-2.92V13.14h11.86l-2.92,14.09c-1.09,3.97-1.82,5.78-6.02,5.96ZM18.43,46.34c-2.92,0-5.29-2.37-5.29-5.47,0-2.92,2.37-5.29,5.29-5.29s5.29,2.37,5.29,5.29c0,3.1-2.37,5.47-5.29,5.47Z" style="fill:#f05059;"/></svg>